<?xml version="1.0" encoding="UTF-8"?>
<svg id="Layer_2" data-name="Layer 2" xmlns="http://www.w3.org/2000/svg" viewBox="0 0 157.59 158.47">
  <g id="Layer_4" data-name="Layer 4">
    <path d="M51.1,66.71c1.88,1.73,22.82,18.73,22.82,18.73,0,0,22.67-13.62,27.29-25.3s4-13.21,4.64-16.72-.32-11.81-3.19-16.92-6.38-10.54-10.85-14.69S73.92,1.6,73.92,1.6c0,0-12.21,3.8-21.18,14.86s-10.23,24.83-10.23,24.83c0,0-1.37,16.25,8.59,25.42Z" style="fill: #b95654; stroke: #5e1327; stroke-miterlimit: 10; stroke-width: 3px;"/>
    <path d="M87.46,59.09c-1.27,2.22-13.22,26.4-13.22,26.4,0,0,18.3,19.09,30.71,21.02s13.77.98,17.33.82,11.45-2.92,15.79-6.86,8.86-8.56,11.92-13.83,6.01-19.69,6.01-19.69c0,0-6.4-11.06-19.17-17.37-12.77-6.3-26.48-4.48-26.48-4.48,0,0-16.15,2.26-22.89,14Z" style="fill: #b95654; stroke: #5e1327; stroke-miterlimit: 10; stroke-width: 3px;"/>
    <path d="M103.82,88.48c-2.52-.41-29.36-3.04-29.36-3.04,0,0-11.4,23.86-8.82,36.15,2.58,12.29,3.95,13.23,5.35,16.51s6.78,9.68,11.99,12.35,11.14,5.27,17.15,6.27c6.02,1,20.55-1.34,20.55-1.34,0,0,8.09-9.9,9.48-24.07,1.39-14.18-5.16-26.36-5.16-26.36,0,0-7.81-14.31-21.18-16.47Z" style="fill: #b95654; stroke: #5e1327; stroke-miterlimit: 10; stroke-width: 3px;"/>
    <path d="M79.53,114.6c-.33-2.54-5.42-29.02-5.42-29.02,0,0-26.12-4.16-37.17,1.81s-11.56,7.54-14.31,9.82-7.36,9.25-8.44,15.01-1.89,12.17-1.14,18.23c.75,6.05,7.11,19.32,7.11,19.32,0,0,11.79,4.95,25.77,2.25,13.99-2.69,23.81-12.43,23.81-12.43,0,0,11.51-11.56,9.78-24.98Z" style="fill: #b95654; stroke: #5e1327; stroke-miterlimit: 10; stroke-width: 3px;"/>
    <path d="M46.42,95.23c2.45-.72,27.82-9.87,27.82-9.87,0,0,.04-26.44-7.57-36.43-7.61-9.99-9.25-10.25-11.92-12.61s-10.28-5.83-16.14-6.01c-5.86-.18-12.32.03-18.18,1.71-5.86,1.68-17.98,10.03-17.98,10.03,0,0-3.05,12.41,1.78,25.81,4.84,13.4,15.98,21.58,15.98,21.58,0,0,13.2,9.57,26.2,5.78Z" style="fill: #b95654; stroke: #5e1327; stroke-miterlimit: 10; stroke-width: 3px;"/>
    <circle cx="74.24" cy="85.44" r="11.9" style="fill: #5e1327;"/>
  </g>
</svg>