<?xml version="1.0" encoding="UTF-8"?>
<svg id="Layer_2" data-name="Layer 2" xmlns="http://www.w3.org/2000/svg" viewBox="0 0 260.55 65.11">
  <g id="Layer_1-2" data-name="Layer 1">
    <text></text>
    <g>
      <path d="M22.83,2.45c.31.34.47.76.47,1.27,0,.91-.49,1.66-1.46,2.23-.71.41-1.33.78-1.85,1.12s-.98.69-1.41,1.08c-1.23,1.1-2.48,2.31-3.76,3.64s-2.16,2.32-2.65,2.99c-.22.29-.36.58-.41.86s-.08.67-.08,1.18c0,1.18.46,2.6,1.38,4.25s2.05,3.14,3.4,4.49,2.61,2.21,3.78,2.58c.34.11.6.29.79.56s.28.59.28.97c0,.55-.18,1.03-.53,1.42s-.83.6-1.42.6c-1.14,0-2.49-.72-4.06-2.15s-2.96-3.2-4.17-5.28-1.9-4.03-2.07-5.84c-.7.96-1.32,1.91-1.84,2.85s-.94,1.9-1.26,2.88c-.28,2.62-.45,4.49-.51,5.59-.02.55-.21.98-.56,1.3s-.84.47-1.46.47c-.59,0-1.05-.17-1.41-.51s-.53-.78-.53-1.32c0-.22.12-.9.37-2.04.35-1.65.67-3.22.94-4.71s.54-3.26.8-5.31c.59-4.57.98-7.82,1.19-9.75s.31-3.25.31-3.96c0-.61.2-1.09.61-1.44s.96-.53,1.66-.53c.49,0,.89.16,1.2.47s.47.7.47,1.16c0,.18-.03.43-.1.77s-.14.73-.24,1.18c-.33,1.48-.65,3.12-.98,4.92s-.66,4.14-1.01,7.01v.05c.98-1.7,1.87-3.07,2.66-4.1s1.98-2.44,3.58-4.21c1.54-1.7,2.78-3.04,3.74-4.02s1.86-1.76,2.69-2.36,1.57-.89,2.21-.89c.5,0,.91.17,1.22.51Z" style="fill: #71ffeb; stroke: #71ffeb; stroke-miterlimit: 10; stroke-width: 3px;"/>
      <path d="M31.22,30.64c-1.26-.81-2.23-1.89-2.91-3.23s-1.02-2.81-1.02-4.39c0-.86.08-2.09.25-3.71s.42-3.83.76-6.63c.4-3.28.6-6.23.6-8.86,0-.53.22-.97.66-1.33s.96-.54,1.57-.54c.4,0,.75.09,1.05.28s.54.43.69.73.24.61.24.92c0,.23-.03.5-.08.8s-.11.61-.18.94c-.2.9-.37,1.83-.51,2.78-.39,2.7-.76,5.5-1.13,8.4s-.55,4.76-.55,5.55c0,1.23.2,2.34.59,3.34s.98,1.78,1.78,2.36,1.76.87,2.91.87c1.28,0,2.4-.31,3.38-.92s1.75-1.47,2.34-2.57.97-2.35,1.16-3.77c.5-3.87.86-6.6,1.05-8.19.43-3.63.65-6.79.65-9.47,0-.67.21-1.18.62-1.53s.94-.53,1.6-.53c.61,0,1.1.18,1.48.53s.56.82.56,1.41c0,.27-.02.54-.07.83s-.12.64-.23,1.09c-.22,1.03-.38,1.86-.47,2.48-.27,1.85-.62,4.55-1.04,8.09-.05.33-.26,2.02-.63,5.08-.27,2.13-.88,3.98-1.83,5.55s-2.19,2.77-3.71,3.6-3.26,1.26-5.22,1.26c-1.64,0-3.09-.4-4.35-1.21Z" style="fill: #71ffeb; stroke: #71ffeb; stroke-miterlimit: 10; stroke-width: 3px;"/>
      <path d="M69.16,28.49c.39.29.58.69.58,1.22,0,.64-.2,1.14-.59,1.48s-.93.51-1.63.51c-.39,0-.9-.03-1.55-.09-1.64-.12-3.33-.18-5.06-.18-.52,0-1.44.01-2.78.04-1.66.02-3.11.04-4.32.04h-.07c-.15,0-.27,0-.35-.02-.48-.06-.84-.23-1.07-.51-.34-.34-.51-.77-.51-1.3,0-.22.12-.9.37-2.04.35-1.65.67-3.22.94-4.71s.54-3.26.8-5.31c.59-4.57.98-7.82,1.19-9.75s.31-3.25.31-3.96c0-.62.21-1.1.62-1.45s.97-.52,1.69-.52c.5,0,.91.16,1.23.47s.47.7.47,1.16c0,.18-.03.44-.1.79s-.14.76-.24,1.21c-.32,1.5-.63,3.15-.94,4.94s-.64,4.11-.99,6.94c-.55,4.35-.96,7.99-1.23,10.92.28,0,.5,0,.65.02,1.31.02,2.64.04,3.99.04,1.16,0,2.53-.07,4.1-.21,1.21-.11,2.16-.16,2.87-.16s1.25.14,1.63.43Z" style="fill: #71ffeb; stroke: #71ffeb; stroke-miterlimit: 10; stroke-width: 3px;"/>
      <path d="M91.83,4.58c2.57,2.05,3.85,5.06,3.85,9.04,0,3.15-.73,6.13-2.2,8.94s-3.48,5.06-6.05,6.76-5.42,2.55-8.56,2.55c-.71,0-1.34-.11-1.89-.34s-.96-.54-1.26-.95-.44-.86-.44-1.38c0-.45.06-1.07.17-1.87s.29-2.01.54-3.61c.05-.33.19-1.29.44-2.89s.47-3.25.69-4.95c.08-.64.32-2.66.7-6.05l.53-4.46h-.47c-.52,0-.91-.13-1.19-.4s-.41-.62-.41-1.05c0-.75.37-1.34,1.1-1.76s1.72-.63,2.96-.63c5.1,0,8.93,1.03,11.5,3.08ZM85.78,26.59c2.02-1.37,3.6-3.18,4.73-5.43s1.7-4.7,1.7-7.32c0-1.89-.35-3.49-1.04-4.8s-1.69-2.31-3-2.98-2.87-1.01-4.7-1.01c-.61,0-1.17.02-1.67.05l-.84,6.94-.46,3.81-.47,3.83c-.07.57-.23,1.9-.48,3.96s-.45,3.77-.59,5.11c2.53-.08,4.81-.81,6.83-2.17Z" style="fill: #71ffeb; stroke: #71ffeb; stroke-miterlimit: 10; stroke-width: 3px;"/>
      <path d="M119.79,2.46c.4.35.61.76.61,1.26,0,.62-.2,1.11-.6,1.47s-.9.54-1.51.54c-.11,0-.63-.04-1.56-.11-1.76-.18-3.25-.26-4.48-.26-.95,0-1.69,0-2.21-.02l-3.06-.02c-.27,1.35-.5,2.65-.7,3.89s-.42,2.82-.67,4.7c1.11.05,2.68.07,4.69.07.89,0,1.92-.04,3.09-.11.89-.05,1.47-.07,1.74-.07.63,0,1.13.17,1.49.5s.54.76.54,1.29c0,.62-.17,1.11-.51,1.46s-.82.53-1.44.53c-.21,0-.79-.05-1.72-.14-1.55-.2-2.94-.3-4.18-.3h-4.17c-.77,5.77-1.25,9.49-1.44,11.16.97.04,1.89.05,2.76.05,1.54,0,3.33-.06,5.4-.18,1.44-.08,2.55-.12,3.34-.12.66,0,1.15.16,1.49.47s.5.74.5,1.28c0,.6-.18,1.06-.55,1.38s-.9.48-1.59.48c-.18,0-.64-.02-1.39-.07-1.76-.12-3.52-.18-5.29-.18-1.25,0-2.72.01-4.41.04-1.22.02-2.01.04-2.37.04-.52,0-.94-.16-1.27-.48s-.5-.72-.5-1.19c0-.25.08-.82.23-1.73s.25-1.52.3-1.84c.67-3.77,1.17-7.03,1.49-9.76.11-.91.41-3.33.91-7.24.25-1.72.42-3.03.51-3.92-.69-.04-1.22-.2-1.58-.48s-.54-.7-.54-1.24c0-.47.17-.87.5-1.2s.78-.49,1.33-.49c.29,0,1.24.02,2.83.07,2.58.06,4.11.09,4.59.09.96,0,2.58-.03,4.87-.09,1.45-.05,2.45-.07,2.99-.07.64,0,1.17.17,1.57.52Z" style="fill: #71ffeb; stroke: #71ffeb; stroke-miterlimit: 10; stroke-width: 3px;"/>
      <path d="M156.43,2.41c.32.32.47.7.47,1.16,0,.18-.03.44-.1.79s-.14.76-.24,1.21c-.32,1.5-.63,3.15-.94,4.94s-.64,4.11-.99,6.94c-.36,2.88-.67,5.45-.91,7.7s-.38,3.77-.43,4.57c-.02.54-.22.97-.59,1.29s-.86.48-1.49.48c-.59,0-1.05-.17-1.41-.51s-.53-.78-.53-1.32c0-.22.12-.9.37-2.04.35-1.65.67-3.22.94-4.71s.54-3.26.8-5.31v-.05c-.94-.05-1.83-.08-2.68-.11s-2.15-.04-3.89-.04c-.69,0-1.79.01-3.29.04-1.08.02-1.9.04-2.46.04-.36,2.88-.67,5.44-.91,7.68s-.38,3.76-.43,4.55c-.02.54-.22.97-.59,1.29s-.86.48-1.49.48c-.59,0-1.05-.17-1.41-.51s-.53-.78-.53-1.32c0-.22.12-.9.37-2.04.35-1.65.67-3.22.94-4.71s.54-3.26.8-5.31c0-.04,0-.06.02-.09h-.16c-.6,0-1.1-.15-1.49-.44s-.56-.76-.49-1.39c.12-.96.69-1.44,1.71-1.44.32,0,.6,0,.84.02.41-3.29.69-5.69.84-7.19s.23-2.56.23-3.18.21-1.1.62-1.45.97-.52,1.69-.52c.5,0,.91.16,1.23.47s.47.7.47,1.16c0,.18-.03.44-.1.78s-.14.75-.24,1.2c-.26,1.24-.51,2.53-.75,3.85s-.5,2.98-.78,4.97c1.57.02,3.05.04,4.43.04,1.69,0,3.55-.04,5.59-.11.35-.01.72-.02,1.12-.04s.79-.02,1.2-.02c.41-3.28.69-5.67.84-7.17s.23-2.56.23-3.18.21-1.1.62-1.45.97-.52,1.69-.52c.5,0,.91.16,1.23.47Z" style="fill: #71ffeb; stroke: #71ffeb; stroke-miterlimit: 10; stroke-width: 3px;"/>
      <path d="M162.16,31.02c-.94-.51-1.71-1.14-2.29-1.88s-.88-1.43-.88-2.07c0-.57.17-1.03.52-1.37s.81-.51,1.4-.51c.39,0,.7.12.95.37s.52.63.83,1.16c.28.47.54.85.78,1.15s.56.56.97.77.91.33,1.5.33c1.5,0,2.7-.68,3.59-2.05s1.52-3.42,1.88-6.18c.49-3.74.89-7.28,1.2-10.63s.46-5.51.46-6.49c0-.5.21-.91.64-1.22s.95-.47,1.56-.47c.64,0,1.15.16,1.51.48s.54.72.54,1.19c0,.28-.09.77-.26,1.46-.2.87-.38,1.7-.54,2.5s-.33,1.86-.52,3.18c-.19,1.29-.45,3.4-.77,6.33l-.37,3.16c-.3,2.48-.81,4.57-1.53,6.26s-1.74,2.99-3.08,3.91-3.05,1.38-5.13,1.38c-1.02,0-2-.25-2.94-.76Z" style="fill: #71ffeb; stroke: #71ffeb; stroke-miterlimit: 10; stroke-width: 3px;"/>
      <path d="M214.29,2.46c.4.35.61.76.61,1.26,0,.62-.2,1.11-.6,1.47s-.9.54-1.51.54c-.11,0-.63-.04-1.56-.11-1.76-.18-3.25-.26-4.48-.26-.95,0-1.69,0-2.21-.02l-3.06-.02h-.02c-.27,1.35-.5,2.65-.7,3.89s-.42,2.82-.67,4.7c1.11.05,2.68.07,4.71.07.89,0,1.92-.04,3.09-.11.89-.05,1.47-.07,1.74-.07.63,0,1.13.17,1.49.5s.54.76.54,1.29c0,.62-.17,1.11-.51,1.46s-.82.53-1.44.53c-.21,0-.79-.05-1.72-.14-1.55-.2-2.94-.3-4.18-.3h-4.18c-.77,5.77-1.25,9.49-1.44,11.16.96.04,1.89.05,2.78.05,1.54,0,3.33-.06,5.4-.18,1.44-.08,2.55-.12,3.34-.12.66,0,1.15.16,1.49.47s.5.74.5,1.28c0,.6-.18,1.06-.55,1.38s-.9.48-1.59.48c-.18,0-.64-.02-1.39-.07-1.76-.12-3.52-.18-5.29-.18-1.25,0-2.71.01-4.38.04-1.24.02-2.03.04-2.37.04-.52,0-.94-.16-1.27-.48s-.5-.72-.5-1.19c0-.25.07-.8.21-1.66s.23-1.43.28-1.7c.36-2.12.59-3.45.67-3.97-1.01.02-1.96.04-2.87.04-1.04,0-2.46.03-4.24.09l-1.46.04c-2.14,3.69-3.45,6.22-3.9,7.58-.29.84-.98,1.27-2.06,1.27-.56,0-1.02-.17-1.38-.52s-.54-.81-.54-1.38c0-.29.09-.62.28-.98s.53-.94,1.02-1.74c.19-.28.43-.68.74-1.2l1.83-3.01c-.45-.07-.81-.23-1.1-.47s-.43-.59-.43-1.02c0-.56.15-.99.44-1.28s.68-.44,1.16-.44c.42,0,1.07.02,1.93.05l.83-1.3c.22-.35.53-.84.93-1.48s.73-1.17.98-1.6c2.57-4.3,4.64-7.8,6.22-10.51.55-.94,1.08-1.62,1.58-2.05s1.15-.64,1.95-.64h.02c.29,0,1.24.02,2.83.07,2.58.06,4.11.09,4.59.09.96,0,2.58-.03,4.87-.09,1.45-.05,2.45-.07,2.99-.07.64,0,1.17.17,1.57.52ZM195.95,19.61c.18-1.22.31-2.25.4-3.09.32-2.62.62-5,.91-7.12.29-2.24.47-3.64.53-4.22h-.12c-.75,1.09-1.6,2.4-2.55,3.93s-2.41,3.92-4.38,7.16c-.12.19-.2.33-.25.42-.62,1-1.21,1.97-1.78,2.94l2.18.02c1.39,0,3.08-.01,5.04-.04Z" style="fill: #71ffeb; stroke: #71ffeb; stroke-miterlimit: 10; stroke-width: 3px;"/>
      <path d="M233.5,28.49c.39.29.58.69.58,1.22,0,.64-.2,1.14-.59,1.48s-.93.51-1.63.51c-.39,0-.9-.03-1.55-.09-1.64-.12-3.33-.18-5.06-.18-.52,0-1.44.01-2.78.04-1.66.02-3.11.04-4.32.04h-.07c-.15,0-.27,0-.35-.02-.48-.06-.84-.23-1.07-.51-.34-.34-.51-.77-.51-1.3,0-.22.12-.9.37-2.04.35-1.65.67-3.22.94-4.71s.54-3.26.8-5.31c.59-4.57.98-7.82,1.19-9.75s.31-3.25.31-3.96c0-.62.21-1.1.62-1.45s.97-.52,1.69-.52c.5,0,.91.16,1.23.47s.47.7.47,1.16c0,.18-.03.44-.1.79s-.14.76-.24,1.21c-.32,1.5-.63,3.15-.94,4.94s-.64,4.11-.99,6.94c-.55,4.35-.96,7.99-1.23,10.92.28,0,.5,0,.65.02,1.31.02,2.64.04,3.99.04,1.16,0,2.53-.07,4.1-.21,1.21-.11,2.16-.16,2.87-.16s1.25.14,1.63.43Z" style="fill: #71ffeb; stroke: #71ffeb; stroke-miterlimit: 10; stroke-width: 3px;"/>
      <path d="M256.72,15.69c-1.56,1.55-3.5,2.75-5.84,3.6s-4.62,1.34-6.86,1.44c-.33,2.64-.57,4.63-.71,5.98s-.22,2.31-.22,2.9c0,.54-.2.99-.61,1.35s-.92.54-1.56.54c-.55,0-1.01-.15-1.38-.45s-.55-.68-.55-1.13c0-.11,0-.19.02-.25.01-.11.06-.38.16-.83.3-1.5.61-3.12.92-4.86s.62-3.86.94-6.37c.2-1.66.39-3.16.58-4.5.06-.43.2-1.56.43-3.38s.38-3.15.45-3.99l-.21.04c-.5,0-.91-.17-1.22-.52s-.47-.78-.47-1.29c0-.76.38-1.32,1.12-1.67s1.85-.53,3.3-.53c2.31,0,4.51.24,6.61.73s3.86,1.37,5.28,2.64,2.14,3,2.14,5.18c0,2.03-.78,3.81-2.34,5.36ZM249.19,16.62c1.77-.61,3.3-1.46,4.58-2.55s1.92-2.36,1.92-3.81c0-1.68-.8-2.92-2.41-3.74s-3.97-1.23-7.1-1.23h-.18c-.42,2.95-.96,7.08-1.6,12.38v.04c1.42-.11,3.01-.46,4.78-1.07Z" style="fill: #71ffeb; stroke: #71ffeb; stroke-miterlimit: 10; stroke-width: 3px;"/>
    </g>
    <polygon points="2.36 29.86 3.2 37.45 4.3 29.86 2.36 29.86" style="fill: #71ffeb; stroke: #71ffeb; stroke-miterlimit: 10; stroke-width: 3px;"/>
    <polygon points="15.3 29.53 17.95 29.53 16.63 35.84 15.3 29.53" style="fill: #71ffeb; stroke: #71ffeb; stroke-miterlimit: 10; stroke-width: 3px;"/>
    <polygon points="31.45 29.86 32.46 36.73 34.02 29.86 31.45 29.86" style="fill: #71ffeb; stroke: #71ffeb; stroke-miterlimit: 10; stroke-width: 3px;"/>
    <polygon points="38.03 30.49 38.98 43.98 41.92 30.49 38.03 30.49" style="fill: #71ffeb; stroke: #71ffeb; stroke-miterlimit: 10; stroke-width: 3px;"/>
    <polygon points="53.3 29.86 54.31 42.05 57.43 29.86 53.3 29.86" style="fill: #71ffeb; stroke: #71ffeb; stroke-miterlimit: 10; stroke-width: 3px;"/>
    <polygon points="62.3 30.49 63.67 39.21 65.6 30.49 62.3 30.49" style="fill: #71ffeb; stroke: #71ffeb; stroke-miterlimit: 10; stroke-width: 3px;"/>
    <polygon points="78.88 31.86 80.47 40.31 82.4 31.13 78.88 31.86" style="fill: #71ffeb; stroke: #71ffeb; stroke-miterlimit: 10; stroke-width: 3px;"/>
    <polygon points="86.07 29.2 87.08 35.72 88.55 28.19 86.07 29.2" style="fill: #71ffeb; stroke: #71ffeb; stroke-miterlimit: 10; stroke-width: 3px;"/>
    <polygon points="102.05 29.86 104.34 40.67 105.99 29.86 102.05 29.86" style="fill: #71ffeb; stroke: #71ffeb; stroke-miterlimit: 10; stroke-width: 3px;"/>
    <polygon points="111.37 30.6 112.33 35.72 114.16 30.49 111.37 30.6" style="fill: #71ffeb; stroke: #71ffeb; stroke-miterlimit: 10; stroke-width: 3px;"/>
  </g>
</svg>